<svg xmlns="http://www.w3.org/2000/svg" version="1.1" xmlns:xlink="http://www.w3.org/1999/xlink" xmlns:svgjs="http://svgjs.dev/svgjs" width="1000" height="212" viewBox="0 0 1000 212"><g transform="matrix(1,0,0,1,-0.6060606060606233,0.5807583122770268)"><svg viewBox="0 0 396 84" data-background-color="#6cd6bb" preserveAspectRatio="xMidYMid meet" height="212" width="1000" xmlns="http://www.w3.org/2000/svg" xmlns:xlink="http://www.w3.org/1999/xlink"><defs></defs><g id="tight-bounds" transform="matrix(1,0,0,1,0.2400000000000091,-0.2301117841097664)"><svg viewBox="0 0 395.52 84.46022356821955" height="84.46022356821955" width="395.52"><g><svg viewBox="0 0 395.52 84.46022356821955" height="84.46022356821955" width="395.52"><g><svg viewBox="0 0 596.087388575979 127.28983137470506" height="84.46022356821955" width="395.52"><g><rect width="7.185539907750348" height="127.28983137470506" x="174.57153477359427" y="0" fill="#ffffff" opacity="1" stroke-width="0" stroke="transparent" fill-opacity="1" class="rect-o-0" data-fill-palette-color="primary" rx="1%" id="o-0" data-palette-color="#ffffff"></rect></g><g transform="matrix(1,0,0,1,200.56738857597904,0.31664137157886074)"><svg viewBox="0 0 395.52 126.65654863154734" height="126.65654863154734" width="395.52"><g><svg viewBox="0 0 395.52 126.65654863154734" height="126.65654863154734" width="395.52"><g><svg viewBox="0 0 395.52 86.47362192087235" height="86.47362192087235" width="395.52"><g transform="matrix(1,0,0,1,0,0)"><svg width="395.52" viewBox="7.079999923706055 -34.69000244140625 174.6300048828125 35.18000411987305" height="86.47362192087235" data-palette-color="#ffffff"><svg></svg><g class="undefined-text-0" data-fill-palette-color="primary" id="text-0"><path d="M17.97-31.03h-6.74v27.37h5.05c0.733 0 1.34-0.01 1.82-0.03 0.48-0.013 1.133-0.06 1.96-0.14 0.82-0.087 1.527-0.21 2.12-0.37 0.593-0.16 1.27-0.397 2.03-0.71 0.753-0.307 1.423-0.68 2.01-1.12 0.587-0.44 1.173-1 1.76-1.68 0.587-0.687 1.1-1.46 1.54-2.32v0c1.073-2.067 1.61-4.583 1.61-7.55v0c0-2.047-0.297-3.897-0.89-5.55-0.593-1.653-1.383-2.997-2.37-4.03-0.987-1.033-2.037-1.85-3.15-2.45-1.113-0.607-2.28-1.013-3.5-1.22v0c-0.72-0.133-1.803-0.2-3.25-0.2zM7.08-34.69h10.74c2.247 0 4.29 0.223 6.13 0.67 1.84 0.447 3.383 1.077 4.63 1.89 1.24 0.813 2.31 1.733 3.21 2.76 0.893 1.027 1.587 2.17 2.08 3.43 0.5 1.26 0.863 2.5 1.09 3.72 0.227 1.22 0.34 2.49 0.34 3.81v0c0 1.513-0.113 2.97-0.34 4.37-0.227 1.4-0.62 2.823-1.18 4.27-0.567 1.453-1.283 2.753-2.15 3.9-0.873 1.147-2 2.18-3.38 3.1-1.387 0.92-2.957 1.6-4.71 2.04v0c-0.913 0.227-1.933 0.397-3.06 0.51-1.12 0.113-2.047 0.18-2.78 0.2-0.733 0.013-1.767 0.02-3.1 0.02v0h-7.52zM46.29-11.89v-22.8h4.15v22.48c0 1.387 0.117 2.577 0.35 3.57 0.24 0.993 0.74 1.92 1.5 2.78v0c1.633 1.84 4.037 2.76 7.21 2.76v0c2.293 0 4.21-0.5 5.75-1.5 1.533-1 2.53-2.413 2.99-4.24v0c0.207-0.86 0.31-1.983 0.31-3.37v0-22.48h4.11c0 5.22 0.003 9.49 0.01 12.81 0.007 3.327 0.01 5.457 0.01 6.39 0 0.933 0.003 1.683 0.01 2.25 0.013 0.56 0.02 1.027 0.02 1.4v0c0 0.747-0.017 1.4-0.05 1.96-0.033 0.567-0.143 1.303-0.33 2.21-0.187 0.913-0.443 1.707-0.77 2.38-0.327 0.68-0.82 1.4-1.48 2.16-0.66 0.767-1.44 1.4-2.34 1.9-0.907 0.493-2.063 0.903-3.47 1.23-1.407 0.327-2.997 0.49-4.77 0.49v0c-1.907 0-3.617-0.2-5.13-0.6-1.513-0.4-2.7-0.877-3.56-1.43-0.867-0.553-1.613-1.22-2.24-2-0.627-0.78-1.057-1.45-1.29-2.01-0.24-0.567-0.433-1.157-0.58-1.77v0c-0.273-1.08-0.41-2.603-0.41-4.57zM84.91 0v-34.69h5.25l18.9 29.03v-29.03h4.15v34.69h-5.25l-18.9-29.08v29.08zM132.23-16.43l-11.45-18.26h4.9l8.84 14.33 9.03-14.33h4.64l-11.81 18.26v16.43h-4.15zM152.34 0l12.33-34.69h4.71l12.33 34.69h-4.2l-3.51-10.08h-14.31l-3.51 10.08zM172.73-13.72l-5.88-16.92-5.91 16.92z" data-fill-palette-color="primary" fill="#ffffff" opacity="1"></path></g></svg></g></svg></g><g transform="matrix(1,0,0,1,0,105.28393581550677)"><svg viewBox="0 0 232.20979199999996 21.37261281604058" height="21.37261281604058" width="232.20979199999996"><g transform="matrix(1,0,0,1,0,0)"><svg width="232.20979199999996" viewBox="5 -37.5 413.9100036621094 38.099998474121094" height="21.37261281604058" data-palette-color="#838383"><path d="M14.05-34.45Q20.45-34.45 23.95-31.78 27.45-29.1 27.45-23.8L27.45-23.8Q27.45-18.15 23.8-15.4 20.15-12.65 14.1-12.65L14.1-12.65 9.75-12.65 9.75 0 5 0 5-34.45 14.05-34.45ZM13.9-16.4Q18.05-16.4 20.23-18 22.4-19.6 22.4-23.75L22.4-23.75Q22.4-27.45 20.23-29.1 18.05-30.75 14-30.75L14-30.75 9.75-30.75 9.75-16.4 13.9-16.4ZM39.05 0.6Q36.5 0.6 35.02-0.93 33.55-2.45 33.55-5.2L33.55-5.2 33.55-36.95 38.15-37.5 38.15-5.3Q38.15-4.2 38.52-3.7 38.9-3.2 39.8-3.2L39.8-3.2Q40.75-3.2 41.5-3.5L41.5-3.5 42.7-0.3Q41.05 0.6 39.05 0.6L39.05 0.6ZM66.19-6.15Q66.19-4.55 66.75-3.78 67.3-3 68.4-2.6L68.4-2.6 67.34 0.6Q65.3 0.35 64.05-0.55 62.8-1.45 62.2-3.35L62.2-3.35Q59.55 0.6 54.34 0.6L54.34 0.6Q50.45 0.6 48.2-1.6 45.95-3.8 45.95-7.35L45.95-7.35Q45.95-11.55 48.97-13.8 52-16.05 57.55-16.05L57.55-16.05 61.59-16.05 61.59-18Q61.59-20.8 60.25-22 58.9-23.2 56.09-23.2L56.09-23.2Q53.2-23.2 49-21.8L49-21.8 47.84-25.15Q52.75-26.95 56.95-26.95L56.95-26.95Q61.59-26.95 63.9-24.68 66.19-22.4 66.19-18.2L66.19-18.2 66.19-6.15ZM55.4-2.85Q59.34-2.85 61.59-6.95L61.59-6.95 61.59-13 58.15-13Q50.84-13 50.84-7.6L50.84-7.6Q50.84-5.25 52-4.05 53.15-2.85 55.4-2.85L55.4-2.85ZM85.24-26.95Q87.59-26.95 89.54-26.28 91.49-25.6 93.29-24.1L93.29-24.1 91.09-21.2Q89.69-22.2 88.37-22.68 87.04-23.15 85.44-23.15L85.44-23.15Q82.24-23.15 80.47-20.6 78.69-18.05 78.69-13.05L78.69-13.05Q78.69-8.05 80.44-5.68 82.19-3.3 85.44-3.3L85.44-3.3Q86.99-3.3 88.29-3.78 89.59-4.25 91.19-5.3L91.19-5.3 93.29-2.3Q89.69 0.6 85.24 0.6L85.24 0.6Q79.89 0.6 76.82-3 73.74-6.6 73.74-12.95L73.74-12.95Q73.74-17.15 75.14-20.3 76.54-23.45 79.12-25.2 81.69-26.95 85.24-26.95L85.24-26.95ZM119.44-13.95Q119.44-12.8 119.34-11.6L119.34-11.6 102.54-11.6Q102.84-7.25 104.74-5.2 106.64-3.15 109.64-3.15L109.64-3.15Q111.54-3.15 113.14-3.7 114.74-4.25 116.49-5.45L116.49-5.45 118.49-2.7Q114.29 0.6 109.29 0.6L109.29 0.6Q103.79 0.6 100.72-3 97.64-6.6 97.64-12.9L97.64-12.9Q97.64-17 98.97-20.18 100.29-23.35 102.77-25.15 105.24-26.95 108.59-26.95L108.59-26.95Q113.84-26.95 116.64-23.5 119.44-20.05 119.44-13.95L119.44-13.95ZM114.89-15L114.89-15.3Q114.89-19.2 113.34-21.25 111.79-23.3 108.69-23.3L108.69-23.3Q103.04-23.3 102.54-15L102.54-15 114.89-15ZM133.94-26.95Q136.64-26.95 138.79-26.2 140.94-25.45 142.89-23.95L142.89-23.95 140.94-21.05Q139.14-22.2 137.51-22.75 135.89-23.3 134.09-23.3L134.09-23.3Q131.84-23.3 130.54-22.38 129.24-21.45 129.24-19.85L129.24-19.85Q129.24-18.25 130.46-17.35 131.69-16.45 134.89-15.6L134.89-15.6Q139.29-14.5 141.46-12.6 143.64-10.7 143.64-7.4L143.64-7.4Q143.64-3.5 140.61-1.45 137.59 0.6 133.24 0.6L133.24 0.6Q127.24 0.6 123.29-2.85L123.29-2.85 125.74-5.65Q129.09-3.1 133.14-3.1L133.14-3.1Q135.74-3.1 137.26-4.17 138.79-5.25 138.79-7.1L138.79-7.1Q138.79-8.45 138.24-9.28 137.69-10.1 136.34-10.73 134.99-11.35 132.39-12.05L132.39-12.05Q128.19-13.15 126.31-15 124.44-16.85 124.44-19.7L124.44-19.7Q124.44-21.75 125.66-23.43 126.89-25.1 129.06-26.03 131.24-26.95 133.94-26.95L133.94-26.95ZM181.13-6.15Q181.13-4.55 181.68-3.78 182.23-3 183.33-2.6L183.33-2.6 182.28 0.6Q180.23 0.35 178.98-0.55 177.73-1.45 177.13-3.35L177.13-3.35Q174.48 0.6 169.28 0.6L169.28 0.6Q165.38 0.6 163.13-1.6 160.88-3.8 160.88-7.35L160.88-7.35Q160.88-11.55 163.91-13.8 166.93-16.05 172.48-16.05L172.48-16.05 176.53-16.05 176.53-18Q176.53-20.8 175.18-22 173.83-23.2 171.03-23.2L171.03-23.2Q168.13-23.2 163.93-21.8L163.93-21.8 162.78-25.15Q167.68-26.95 171.88-26.95L171.88-26.95Q176.53-26.95 178.83-24.68 181.13-22.4 181.13-18.2L181.13-18.2 181.13-6.15ZM170.33-2.85Q174.28-2.85 176.53-6.95L176.53-6.95 176.53-13 173.08-13Q165.78-13 165.78-7.6L165.78-7.6Q165.78-5.25 166.93-4.05 168.08-2.85 170.33-2.85L170.33-2.85ZM202.03-26.95Q203.43-26.95 204.63-26.65L204.63-26.65 203.78-22.15Q202.58-22.45 201.48-22.45L201.48-22.45Q199.03-22.45 197.53-20.65 196.03-18.85 195.18-15.05L195.18-15.05 195.18 0 190.58 0 190.58-26.35 194.53-26.35 194.98-21Q196.03-23.95 197.83-25.45 199.63-26.95 202.03-26.95L202.03-26.95ZM229.78-13.95Q229.78-12.8 229.68-11.6L229.68-11.6 212.88-11.6Q213.18-7.25 215.08-5.2 216.98-3.15 219.98-3.15L219.98-3.15Q221.88-3.15 223.48-3.7 225.08-4.25 226.83-5.45L226.83-5.45 228.83-2.7Q224.63 0.6 219.63 0.6L219.63 0.6Q214.13 0.6 211.05-3 207.98-6.6 207.98-12.9L207.98-12.9Q207.98-17 209.3-20.18 210.63-23.35 213.1-25.15 215.58-26.95 218.93-26.95L218.93-26.95Q224.18-26.95 226.98-23.5 229.78-20.05 229.78-13.95L229.78-13.95ZM225.23-15L225.23-15.3Q225.23-19.2 223.68-21.25 222.13-23.3 219.03-23.3L219.03-23.3Q213.38-23.3 212.88-15L212.88-15 225.23-15ZM270.27-13.95Q270.27-12.8 270.17-11.6L270.17-11.6 253.37-11.6Q253.67-7.25 255.57-5.2 257.47-3.15 260.47-3.15L260.47-3.15Q262.37-3.15 263.97-3.7 265.57-4.25 267.32-5.45L267.32-5.45 269.32-2.7Q265.12 0.6 260.12 0.6L260.12 0.6Q254.62 0.6 251.55-3 248.47-6.6 248.47-12.9L248.47-12.9Q248.47-17 249.8-20.18 251.12-23.35 253.6-25.15 256.07-26.95 259.42-26.95L259.42-26.95Q264.67-26.95 267.47-23.5 270.27-20.05 270.27-13.95L270.27-13.95ZM265.72-15L265.72-15.3Q265.72-19.2 264.17-21.25 262.62-23.3 259.52-23.3L259.52-23.3Q253.87-23.3 253.37-15L253.37-15 265.72-15ZM290.02-26.95Q293.62-26.95 295.65-24.8 297.67-22.65 297.67-18.9L297.67-18.9 297.67 0 293.07 0 293.07-18.25Q293.07-21.05 292.02-22.2 290.97-23.35 288.92-23.35L288.92-23.35Q286.82-23.35 285.22-22.15 283.62-20.95 282.22-18.7L282.22-18.7 282.22 0 277.62 0 277.62-26.35 281.57-26.35 281.97-22.45Q283.37-24.55 285.45-25.75 287.52-26.95 290.02-26.95L290.02-26.95ZM322.72-37.5L327.32-36.95 327.32 0 323.27 0 322.82-3.65Q321.52-1.65 319.57-0.53 317.62 0.6 315.22 0.6L315.22 0.6Q310.52 0.6 307.89-3.1 305.27-6.8 305.27-13.05L305.27-13.05Q305.27-17.1 306.52-20.25 307.77-23.4 310.12-25.18 312.47-26.95 315.62-26.95L315.62-26.95Q319.67-26.95 322.72-23.7L322.72-23.7 322.72-37.5ZM316.22-3.05Q318.32-3.05 319.82-4.03 321.32-5 322.72-6.95L322.72-6.95 322.72-19.85Q321.42-21.55 319.94-22.43 318.47-23.3 316.62-23.3L316.62-23.3Q313.57-23.3 311.89-20.75 310.22-18.2 310.22-13.15L310.22-13.15Q310.22-8.05 311.77-5.55 313.32-3.05 316.22-3.05L316.22-3.05ZM342.07 0.6Q339.52 0.6 338.04-0.93 336.57-2.45 336.57-5.2L336.57-5.2 336.57-36.95 341.17-37.5 341.17-5.3Q341.17-4.2 341.54-3.7 341.92-3.2 342.82-3.2L342.82-3.2Q343.77-3.2 344.52-3.5L344.52-3.5 345.72-0.3Q344.07 0.6 342.07 0.6L342.07 0.6ZM371.36-13.95Q371.36-12.8 371.26-11.6L371.26-11.6 354.46-11.6Q354.76-7.25 356.66-5.2 358.56-3.15 361.56-3.15L361.56-3.15Q363.46-3.15 365.06-3.7 366.66-4.25 368.41-5.45L368.41-5.45 370.41-2.7Q366.21 0.6 361.21 0.6L361.21 0.6Q355.71 0.6 352.64-3 349.56-6.6 349.56-12.9L349.56-12.9Q349.56-17 350.89-20.18 352.21-23.35 354.69-25.15 357.16-26.95 360.51-26.95L360.51-26.95Q365.76-26.95 368.56-23.5 371.36-20.05 371.36-13.95L371.36-13.95ZM366.81-15L366.81-15.3Q366.81-19.2 365.26-21.25 363.71-23.3 360.61-23.3L360.61-23.3Q354.96-23.3 354.46-15L354.46-15 366.81-15ZM385.86-26.95Q388.56-26.95 390.71-26.2 392.86-25.45 394.81-23.95L394.81-23.95 392.86-21.05Q391.06-22.2 389.44-22.75 387.81-23.3 386.01-23.3L386.01-23.3Q383.76-23.3 382.46-22.38 381.16-21.45 381.16-19.85L381.16-19.85Q381.16-18.25 382.39-17.35 383.61-16.45 386.81-15.6L386.81-15.6Q391.21-14.5 393.39-12.6 395.56-10.7 395.56-7.4L395.56-7.4Q395.56-3.5 392.54-1.45 389.51 0.6 385.16 0.6L385.16 0.6Q379.16 0.6 375.21-2.85L375.21-2.85 377.66-5.65Q381.01-3.1 385.06-3.1L385.06-3.1Q387.66-3.1 389.19-4.17 390.71-5.25 390.71-7.1L390.71-7.1Q390.71-8.45 390.16-9.28 389.61-10.1 388.26-10.73 386.91-11.35 384.31-12.05L384.31-12.05Q380.11-13.15 378.24-15 376.36-16.85 376.36-19.7L376.36-19.7Q376.36-21.75 377.59-23.43 378.81-25.1 380.99-26.03 383.16-26.95 385.86-26.95L385.86-26.95ZM409.21-26.95Q411.91-26.95 414.06-26.2 416.21-25.45 418.16-23.95L418.16-23.95 416.21-21.05Q414.41-22.2 412.78-22.75 411.16-23.3 409.36-23.3L409.36-23.3Q407.11-23.3 405.81-22.38 404.51-21.45 404.51-19.85L404.51-19.85Q404.51-18.25 405.73-17.35 406.96-16.45 410.16-15.6L410.16-15.6Q414.56-14.5 416.73-12.6 418.91-10.7 418.91-7.4L418.91-7.4Q418.91-3.5 415.88-1.45 412.86 0.6 408.51 0.6L408.51 0.6Q402.51 0.6 398.56-2.85L398.56-2.85 401.01-5.65Q404.36-3.1 408.41-3.1L408.41-3.1Q411.01-3.1 412.53-4.17 414.06-5.25 414.06-7.1L414.06-7.1Q414.06-8.45 413.51-9.28 412.96-10.1 411.61-10.73 410.26-11.35 407.66-12.05L407.66-12.05Q403.46-13.15 401.58-15 399.71-16.85 399.71-19.7L399.71-19.7Q399.71-21.75 400.93-23.43 402.16-25.1 404.33-26.03 406.51-26.95 409.21-26.95L409.21-26.95Z" opacity="1" transform="matrix(1,0,0,1,0,0)" fill="#838383" class="undefined-text-1" data-fill-palette-color="secondary" id="text-1"></path></svg></g></svg></g></svg></g></svg></g><g transform="matrix(1,0,0,1,0,0.31664137157886074)"><svg viewBox="0 0 155.76122087895985 126.65654863154734" height="126.65654863154734" width="155.76122087895985"><g><svg version="1.1" xmlns="http://www.w3.org/2000/svg" xmlns:xlink="http://www.w3.org/1999/xlink" x="0" y="0" viewBox="0 0.0002883635461330414 99.99897003173828 81.313720703125" enable-background="new 0 0 100 81.314" xml:space="preserve" width="155.76122087895985" height="126.65654863154734" class="icon-icon-0" data-fill-palette-color="accent" id="icon-0"><path fill="#354b45" d="M39.74 2.399l-0.255-1.1c1.479-0.344 2.989-0.619 4.49-0.83l0.158 1.121C42.664 1.793 41.185 2.068 39.74 2.399z" data-fill-palette-color="accent"></path><path fill="#354b45" d="M61.917 2.333c-1.442-0.328-2.919-0.587-4.403-0.777l0.15-1.122c1.515 0.195 3.027 0.464 4.497 0.795L61.917 2.333z" data-fill-palette-color="accent"></path><path fill="#354b45" d="M48.589 1.184l-0.053-1.129c1.524-0.071 3.071-0.071 4.572-0.011l-0.042 1.132C51.574 1.114 50.075 1.114 48.589 1.184z" data-fill-palette-color="accent"></path><path fill="#354b45" d="M7.252 77.205c0.784 1.306 1.633 2.586 2.525 3.809l0.914-0.669c-0.872-1.192-1.704-2.441-2.473-3.722L7.252 77.205z" data-fill-palette-color="accent"></path><path fill="#354b45" d="M3.267 68.983c0.54 1.431 1.146 2.845 1.806 4.199l1.015-0.493c-0.642-1.324-1.236-2.707-1.766-4.102L3.267 68.983z" data-fill-palette-color="accent"></path><path fill="#354b45" d="M0.826 60.179c0.275 1.498 0.617 2.999 1.022 4.455l1.09-0.301c-0.396-1.427-0.731-2.893-1-4.358L0.826 60.179z" data-fill-palette-color="accent"></path><path fill="#354b45" d="M1.13 51.082H0c0.002 1.518 0.073 3.054 0.21 4.569l1.125-0.102C1.2 54.065 1.131 52.564 1.13 51.082z" data-fill-palette-color="accent"></path><path fill="#354b45" d="M1.906 42.183l-1.113-0.2c-0.264 1.493-0.467 3.015-0.6 4.535l1.125 0.096C1.449 45.129 1.645 43.637 1.906 42.183z" data-fill-palette-color="accent"></path><path fill="#354b45" d="M4.255 33.562l-1.059-0.393c-0.533 1.435-1.005 2.896-1.402 4.349l1.091 0.299C3.274 36.398 3.736 34.967 4.255 33.562z" data-fill-palette-color="accent"></path><path fill="#354b45" d="M8.117 25.509l-0.972-0.577c-0.776 1.302-1.502 2.658-2.16 4.031l1.019 0.485C6.647 28.111 7.358 26.781 8.117 25.509z" data-fill-palette-color="accent"></path><path fill="#354b45" d="M9.661 21.114l0.915 0.662c0.871-1.202 1.807-2.379 2.782-3.5l-0.853-0.743C11.506 18.677 10.55 19.885 9.661 21.114z" data-fill-palette-color="accent"></path><path fill="#354b45" d="M19.088 11.207c-1.179 0.943-2.336 1.959-3.433 3.01l0.782 0.821c1.075-1.034 2.207-2.031 3.357-2.949L19.088 11.207z" data-fill-palette-color="accent"></path><path fill="#354b45" d="M86.074 14.006c-1.095-1.042-2.256-2.048-3.447-2.998l-0.707 0.888c1.172 0.926 2.305 1.911 3.379 2.93L86.074 14.006z" data-fill-palette-color="accent"></path><path fill="#354b45" d="M27.234 7.137l-0.54-0.989c-1.324 0.715-2.641 1.509-3.916 2.357l0.628 0.936C24.651 8.614 25.939 7.842 27.234 7.137z" data-fill-palette-color="accent"></path><path fill="#354b45" d="M78.917 8.329c-1.266-0.831-2.585-1.616-3.935-2.336L74.454 6.99C75.764 7.69 77.059 8.46 78.3 9.272L78.917 8.329z" data-fill-palette-color="accent"></path><path fill="#354b45" d="M35.434 3.599l-0.354-1.072c-1.455 0.477-2.894 1.024-4.272 1.621l0.446 1.038C32.604 4.601 34.013 4.071 35.434 3.599z" data-fill-palette-color="accent"></path><path fill="#354b45" d="M70.862 4.023c-1.392-0.586-2.834-1.125-4.288-1.593l-0.345 1.077c1.423 0.455 2.831 0.981 4.191 1.559L70.862 4.023z" data-fill-palette-color="accent"></path><path fill="#354b45" d="M99.129 26.774l-2.716-2.711 1.117-9.237-1.241-1.23-3.197 7.139-1.85-1.846c-0.161-0.163-0.379-0.287-0.609-0.361l0.624-3.083-0.992-0.993-1.476 3.457-3.455 1.474 0.989 0.994 3.087-0.624c0.075 0.229 0.199 0.446 0.362 0.61l1.85 1.85-7.144 3.201 1.227 1.236 9.245-1.112 2.707 2.711c0.5 0.507 1.162 0.816 1.873 0.867 0.124 0 0.247-0.036 0.339-0.124 0.084-0.089 0.138-0.211 0.129-0.335C99.946 27.94 99.636 27.278 99.129 26.774z" data-fill-palette-color="accent"></path><path fill="#354b45" d="M51.09 15.112c-18.253 0-33.101 14.848-33.101 33.101 0 18.251 14.848 33.101 33.101 33.101 18.251 0 33.101-14.85 33.101-33.101C84.191 29.96 69.341 15.112 51.09 15.112zM78.073 53.609c0.601 0.607 0.87 1.167 0.991 1.774C75.867 67.848 64.537 77.089 51.09 77.089c-4.979 0-9.666-1.267-13.759-3.494 0.041-0.179 0.081-0.361 0.121-0.555 0.244-1.177 2.063-1.742 2.844-2.521 0.761-0.762 2.275-1.223 2.745-2.219 0.308-0.653-0.128-1.49 0.134-2.099 0.199-0.458 0.958-0.957 1.314-1.314 0.894-0.894 1.564-3.22 1.564-4.442-1.338 0-2.675 0-4.012 0-1.267 0-1.021-1.498-1.026-2.429-0.001-0.5 0.031-1.111-0.212-1.568-0.277-0.52-1.174-0.368-1.655-0.612-0.837-0.425-1.531-1.257-1.695-2.192-0.108-0.613-0.086-1.062-0.857-1.032-0.758 0.032-1.462 0.639-2.167 0.639-0.885 0-1.77 0-2.655 0-1.957 0-3.914 0-5.869 0 0 0.317-0.18 1.349 0.109 1.494 0.723 0.36 1.445 0.722 2.167 1.083 1.078 0.54 1.394 1.889 1.921 2.941 0.518 1.036 1.105 2.054 1.559 3.116 0.562 1.314 0.97 2.777 1.993 3.833 0.431 0.445 1.267 0.354 1.45 0.967 0.232 0.77-0.007 1.71-0.184 2.468-0.196 0.839-0.442 1.668-0.659 2.502-5.966-4.296-10.229-10.807-11.581-18.319 0.402-0.031 0.805-0.085 1.039-0.085 0.78 0 0.804-0.058 1.369-0.621 0.495-0.495 0.817-0.642 0.817-1.324 0-0.79 0-1.583 0-2.372 0.96 0.479 1.918 0.96 2.878 1.438 0.042-1.163 0.873-1.312 1.831-1.473 1.138-0.188 1.887-1.405 2.941-1.405 0.869 0 1.23 0.166 2.046 0.43 0.428 0.141 0.965 0.304 1.412 0.165 0.601-0.188 0.459-1.261 0.667-1.743 0.299-0.697 0.754-1.683 1.56-1.75 0.876-0.07 2.012-0.465 1.056-1.419-1.049-1.049-1.833-2.387-2.542-3.68-0.303-0.555-0.379-1.43-0.89-1.813-1.116-0.838-2.792 0.298-3.63 1.05-0.471 0.425 0.268 1.402-0.379 1.675-1.052 0.446-2.425 0.804-3.511 0.285-0.592-0.283-0.958-0.977-1.63-1.101-0.464-0.084-0.37-0.214-0.37-0.734 0-0.876 0-1.754 0-2.631 0-0.364 0.101-0.221 0.432-0.316 1.303-0.374 0.534-2.07 1.825-2.091 1.497-0.025 0.019-2.576-0.386-3.096-0.227-0.292-0.453-0.423-0.7-0.482 5.295-6.638 13.444-10.903 22.576-10.903 8.311 0 15.809 3.534 21.082 9.173-1.552 1.686-3.22 3.605-4.354 4.456-0.778 0.583-1.786 0.937-2.655 1.371-0.867 0.435-2.043 0.202-2.993 0.202-0.247 0-3.165-0.04-3.165 0.036 0 0.865 0.433 2.625-0.402 3.044-0.997 0.498-2.116 0.878-2.909 1.669-0.225 0.225-1.146 0.867-0.881 1.133 0.001 0.001 0.002 0.002 0.004 0.003-0.145-0.078-0.294-0.128-0.449-0.123-1.129 0.038-2.53 0.086-3.514 0.708-0.624 0.394-0.455 0.99-0.538 1.645-0.094 0.736-0.325 1.515-0.854 2.06-0.632 0.652-0.531 0.759-0.531 1.817 1.119-0.124 2.24-0.249 3.362-0.372 0.132-0.018 0.955-0.022 0.955-0.169 0-0.278-0.157-1.22 0.034-1.411 0.424-0.424 0.853-0.853 1.28-1.28 0.259-0.259 0.73 0.48 0.942 0.693 0.39 0.389 0.771 0.472 0.357 0.882-0.391 0.394-0.784 0.787-1.175 1.178 0.174 0 1.437 0.047 1.44-0.033 0.051-1.074 0.701-2.108 1.438-2.845 0.796-0.796 1.887-0.805 2.745-0.117 0.347 0.28 0.134 1.179 0.134 1.556 0 0.253-0.07 2.878 0.062 2.878 0.633 0 1.185 0.146 1.67-0.265 1.667-1.403 3.848-1.067 5.464-2.613 0.479 0.959 0.96 1.918 1.439 2.878-1.143 0.382-2.287 0.762-3.43 1.143-0.09 0.029-0.862 0.346-0.902 0.269-0.261-0.513-0.539-1.039-0.894-1.495-0.472-0.607-0.59-0.08-0.497 0.478 0.151 0.922 0.736 1.785 1.371 2.451 0.666 0.698 1.039 2.043 1.473 2.912-0.09-1.769 2.485 1.045 2.879 1.438 0.608-0.608 1.22-1.22 1.827-1.826 0.304-0.304 0.604-0.604 0.905-0.905 0.244-0.245-0.028-0.315-0.216-0.579-1.016-1.42 1.593-1.007 2.386-1.007 1.498 0 2.637 0.391 3.732 1.439C76.322 51.74 77.753 53.287 78.073 53.609z" data-fill-palette-color="accent"></path><path fill="#354b45" d="M52.289 37.419c-0.318 0.32-0.64 0.639-0.958 0.96-0.328 0.12-0.87 0.143-0.89 0.521-0.024 0.467-0.045 0.931-0.07 1.398 0.627-0.313 1.254-0.627 1.88-0.939C52.451 39.258 52.289 37.697 52.289 37.419z" data-fill-palette-color="accent"></path><path fill="#354b45" d="M55.143 35.98c0.357 0 0.984 0.2 0.984-0.225 0-0.009 0-0.019 0-0.027 0.069 0.137 0.193 0.223 0.386 0.241-0.115 0.484-0.241 0.968-0.386 1.451 0.438-0.438 0.874-0.875 1.313-1.314 0.294-0.294 0.125-1.03 0.125-1.42 0-0.068 0-0.137 0-0.206 0-0.938 0-1.878 0-2.817-0.027 0.055-0.075 0.144-0.132 0.248-0.018-0.203-0.027-0.402-0.048-0.607-0.056 0.337-0.111 0.671-0.167 1.006-0.368 0.688-0.897 1.733-1.092 2.534 0-0.121 0-0.242 0-0.363 0-0.938 0-1.878 0-2.817C55.836 32.244 53.612 35.98 55.143 35.98z" data-fill-palette-color="accent"></path><path fill="#354b45" d="M68.034 58.973c0.94-0.157 1.805-0.756 2.485-1.405-1.067-0.355-2.131-0.711-3.199-1.066-1.194-0.398-1.197-0.527-1.775-1.686-0.453-0.909-0.766-1.549-1.471-2.254-0.515-0.515-2.19-1.66-2.19-2.415 0-1.149 0.223-1.214-0.853-1.214-1.348 0-2.695 0-4.044 0-2.206 0-4.411 0-6.616 0-0.87 0.882-1.714 1.841-2.353 2.906-1.137 1.895 0.285 2.842 1.53 4.205 1.332 1.457 0.816 3.931 3.308 4.368 0.889 0.154 1.894 0.033 2.794 0.033 0.107 0 2.08-0.278 1.89-0.624 0.209 0.375 0.094 1.417 0.168 1.872 0.169 1.021 0.39 2.035 0.616 3.044 0.267 1.203 0.683 2.39 0.683 3.624 0 1.269 1.321 2.04 2.189 2.909 0.33 0.33 0.519 0.688 0.988 0.688 0.811 0 1.626 0 2.438 0 0.404 0-0.35-4.992 0.929-5.623 0.365-0.18 1.087 0.021 1.303-0.396 0.149-0.283-0.014-0.631 0.135-0.913 0.358-0.69 1.203-0.016 1.285-1.152 0.064-0.922-0.099-2.825-0.749-3.555C66.734 59.431 66.98 59.15 68.034 58.973z" data-fill-palette-color="accent"></path><path fill="#354b45" d="M46.035 28.767c-0.732-0.723-1.521-1.408-2.367-1.996-1.143-0.794-2.004-0.865-3.372-0.865-0.654 0-1.321-0.045-1.973 0.008-0.281 0.023-0.172 0.337-0.253 0.545-0.491 1.256-2.532 2.765-3.531 3.764 1.382 0 2.153 2.867 2.677 3.915 0.315 0.629 0.202 1.283 0.202 1.986 0 1.029-0.089 1.207 0.622 1.918 0.706 0.706 0.646 0.989 1.343 0.292 0.701-0.701 1.401-1.401 2.101-2.101 0.46-0.462 0.251-1.21 0.251-1.836 0-0.924-0.328-1.295 0.607-1.295 0.718 0 1.392 0.064 1.97-0.432 0.438-0.378 0.779-0.854 1.381-0.973 0.668-0.132 2.08-0.371 1.798-1.474C47.377 29.776 46.377 29.105 46.035 28.767z" data-fill-palette-color="accent"></path></svg></g></svg></g></svg></g></svg></g></svg><rect width="395.52" height="84.46022356821955" fill="none" stroke="none" visibility="hidden"></rect></g></svg></g></svg>